<?xml version="1.0" encoding="utf-8"?>
<!-- Generator: Adobe Illustrator 17.1.0, SVG Export Plug-In . SVG Version: 6.00 Build 0)  -->
<!DOCTYPE svg PUBLIC "-//W3C//DTD SVG 1.1//EN" "http://www.w3.org/Graphics/SVG/1.1/DTD/svg11.dtd">
<svg version="1.1" id="Layer_1" xmlns="http://www.w3.org/2000/svg" xmlns:xlink="http://www.w3.org/1999/xlink" x="0px" y="0px"
	 viewBox="0 0 97.7 100" enable-background="new 0 0 97.7 100" xml:space="preserve">
<g>
	<g>
		<path fill="#333333" d="M85.9,50.2L97.7,39l-15.4-5L88,19l-16,2.2L70.6,5.1l-13.5,9L48.8,0.1L40.6,14l-13.5-9l-1.4,16.1L9.7,19
			l5.7,15.1L0,39l11.7,11.1L0,61.3l15.4,4.9L9.7,81.4l16-2.2l1.4,16.1l13.5-9l8.3,13.9l8.3-13.9l13.5,9L72,79.2l16,2.2l-5.7-15.1
			l15.4-4.9L85.9,50.2z M48.8,80.6C32,80.6,18.4,67,18.4,50.2c0-16.8,13.6-30.4,30.4-30.4c16.8,0,30.4,13.6,30.4,30.4
			C79.2,67,65.6,80.6,48.8,80.6z M48.8,25.6c-13.6,0-24.6,11-24.6,24.6c0,13.6,11,24.6,24.6,24.6c13.6,0,24.6-11,24.6-24.6
			C73.5,36.6,62.4,25.6,48.8,25.6z"/>
	</g>
</g>
</svg>
